HIERARCHY
ROOT Hips
{
	OFFSET 0.000000 0.000000 0.000000
	CHANNELS 6 Xposition Yposition Zposition Yrotation Xrotation Zrotation
	JOINT Chest
	{
		OFFSET 0.000000 -0.009282 11.569106
		CHANNELS 6 Xposition Yposition Zposition Yrotation Xrotation Zrotation
		JOINT Chest2
		{
			OFFSET -0.000000 0.016863 9.269641
			CHANNELS 6 Xposition Yposition Zposition Yrotation Xrotation Zrotation
			JOINT Chest3
			{
				OFFSET -0.000000 0.000000 8.374491
				CHANNELS 6 Xposition Yposition Zposition Yrotation Xrotation Zrotation
				JOINT Chest4
				{
					OFFSET -0.000000 0.000000 8.374493
					CHANNELS 6 Xposition Yposition Zposition Yrotation Xrotation Zrotation
					JOINT Neck
					{
						OFFSET -0.000000 0.000001 12.152554
						CHANNELS 6 Xposition Yposition Zposition Yrotation Xrotation Zrotation
						JOINT Head
						{
							OFFSET -0.000000 0.040100 7.802319
							CHANNELS 6 Xposition Yposition Zposition Yrotation Xrotation Zrotation
							End Site
							{
								OFFSET -0.000000 0.020946 14.853096
							}
						}
					}
					JOINT RightCollar
					{
						OFFSET 2.894404 0.000001 6.791374
						CHANNELS 6 Xposition Yposition Zposition Yrotation Xrotation Zrotation
						JOINT RightShoulder
						{
							OFFSET 13.574684 0.000001 0.000000
							CHANNELS 6 Xposition Yposition Zposition Yrotation Xrotation Zrotation
							JOINT RightElbow
							{
								OFFSET 23.923903 0.000002 0.000000
								CHANNELS 6 Xposition Yposition Zposition Yrotation Xrotation Zrotation
								JOINT RightWrist
								{
									OFFSET 19.846718 0.012767 0.000000
									CHANNELS 6 Xposition Yposition Zposition Yrotation Xrotation Zrotation
									End Site
									{
										OFFSET 14.973145 0.000001 0.000000
									}
								}
							}
						}
					}
					JOINT LeftCollar
					{
						OFFSET -2.894404 0.000000 6.791374
						CHANNELS 6 Xposition Yposition Zposition Yrotation Xrotation Zrotation
						JOINT LeftShoulder
						{
							OFFSET -13.574684 -0.000001 0.000000
							CHANNELS 6 Xposition Yposition Zposition Yrotation Xrotation Zrotation
							JOINT LeftElbow
							{
								OFFSET -23.923903 -0.000002 0.000000
								CHANNELS 6 Xposition Yposition Zposition Yrotation Xrotation Zrotation
								JOINT LeftWrist
								{
									OFFSET -19.846718 0.012763 0.000000
									CHANNELS 6 Xposition Yposition Zposition Yrotation Xrotation Zrotation
									End Site
									{
										OFFSET -14.973145 -0.000001 0.000000
									}
								}
							}
						}
					}
				}
			}
		}
	}
	JOINT RightHip
	{
		OFFSET 9.469263 0.004643 0.045487
		CHANNELS 6 Xposition Yposition Zposition Yrotation Xrotation Zrotation
		JOINT RightKnee
		{
			OFFSET 0.000000 0.002666 -40.478676
			CHANNELS 6 Xposition Yposition Zposition Yrotation Xrotation Zrotation
			JOINT RightAnkle
			{
				OFFSET 0.000000 0.049110 -35.224068
				CHANNELS 6 Xposition Yposition Zposition Yrotation Xrotation Zrotation
				JOINT RightToe
				{
					OFFSET -0.000001 12.539530 -6.151390
					CHANNELS 6 Xposition Yposition Zposition Yrotation Xrotation Zrotation
					End Site
					{
						OFFSET -0.000001 5.044996 -1.291870
					}
				}
			}
		}
	}
	JOINT LeftHip
	{
		OFFSET -9.469263 0.004641 0.045487
		CHANNELS 6 Xposition Yposition Zposition Yrotation Xrotation Zrotation
		JOINT LeftKnee
		{
			OFFSET 0.000000 0.002666 -40.478676
			CHANNELS 6 Xposition Yposition Zposition Yrotation Xrotation Zrotation
			JOINT LeftAnkle
			{
				OFFSET 0.000000 0.049110 -35.224068
				CHANNELS 6 Xposition Yposition Zposition Yrotation Xrotation Zrotation
				JOINT LeftToe
				{
					OFFSET -0.000001 12.539530 -6.151390
					CHANNELS 6 Xposition Yposition Zposition Yrotation Xrotation Zrotation
					End Site
					{
						OFFSET -0.000001 5.044996 -1.291870
					}
				}
			}
		}
	}
}
MOTION
Frames: 8
Frame Time: 0.016667
6.794195 3.949481 83.062172 -11.261544 -3.229114 -102.953169 0.000000 -0.009279 11.569103 -0.309075 -2.587209 1.306321 0.000000 0.016864 9.269639 -0.127049 -1.150245 0.571721 0.000000 0.000002 8.374485 -0.127049 -1.150249 0.571723 -0.000000 0.000002 8.374500 -0.094207 -0.862806 0.428539 0.000001 0.000004 12.152556 4.755564 -18.818945 -10.408089 0.000000 0.040094 7.802314 5.374922 1.229898 -17.543324 2.894405 0.000001 6.791362 3.807576 -0.375460 -12.254348 13.574684 0.000002 -0.000007 47.914750 11.866561 33.063252 23.923906 0.000011 0.000003 83.830040 -47.703250 40.341867 19.846716 0.012774 0.000004 1.080746 7.949526 -45.146386 -2.894404 0.000000 6.791368 -6.092328 -0.037781 -7.644085 -13.574685 -0.000002 0.000006 -50.484192 -4.526236 -43.311322 -23.923906 -0.000017 0.000002 -24.480889 -8.571210 -44.856427 -19.846710 0.012762 0.000003 12.146048 13.259628 -8.428404 9.469263 0.004647 0.045487 1.339456 -15.225508 -11.967678 0.000072 0.002664 -40.478596 -3.135799 1.625143 -1.654894 0.000050 0.049105 -35.223957 4.407213 2.530706 -0.897538 -0.000000 12.539526 -6.151390 0.020795 0.015598 -0.004172 -9.469264 0.004647 0.045492 0.990889 -15.492406 -22.790103 -0.000910 0.002501 -40.478508 -1.588863 4.385821 19.812842 -0.000932 0.048937 -35.223988 1.166874 1.401360 20.439305 -0.000001 12.539534 -6.151385 -0.001506 -0.007554 0.007754 
6.796269 3.954544 83.064583 -11.278749 -3.231970 -102.927604 -0.000000 -0.009281 11.569105 -0.302426 -2.605976 1.306637 0.000000 0.016865 9.269636 -0.124390 -1.158728 0.570637 0.000000 0.000001 8.374499 -0.124391 -1.158726 0.570638 -0.000001 -0.000000 8.374488 -0.092208 -0.869162 0.427728 0.000000 -0.000001 12.152567 4.770710 -18.793544 -10.428509 0.000001 0.040098 7.802310 5.393543 1.277426 -17.576536 2.894404 -0.000001 6.791378 3.794737 -0.395225 -12.204619 13.574683 0.000002 -0.000004 48.061524 12.265486 33.607160 23.923901 0.000005 0.000006 83.723974 -47.695686 42.181360 19.846710 0.012775 0.000005 3.098402 8.525440 -46.070869 -2.894405 -0.000001 6.791377 -6.093447 -0.045701 -7.644397 -13.574683 -0.000003 0.000016 -50.066782 -4.540489 -43.118728 -23.923916 0.000002 0.000006 -24.725232 -9.252436 -44.714042 -19.846716 0.012763 0.000002 12.238595 12.093241 -6.569515 9.469262 0.004643 0.045482 1.339533 -15.235396 -11.975754 0.000073 0.002664 -40.478592 -3.134624 1.604957 -1.649633 0.000050 0.049104 -35.223953 4.400752 2.537926 -0.918132 -0.000001 12.539528 -6.151389 0.022943 0.017742 -0.003114 -9.469264 0.004642 0.045487 0.985770 -15.498688 -22.816964 -0.000912 0.002501 -40.478512 -1.587368 4.368146 19.820994 -0.000936 0.048940 -35.223999 1.171159 1.407951 20.544760 -0.000001 12.539535 -6.151402 -0.000730 -0.009432 0.008244 
6.794586 3.962608 83.066833 -11.293419 -3.231456 -102.891561 0.000001 -0.009281 11.569112 -0.300006 -2.614451 1.304889 -0.000001 0.016866 9.269632 -0.123071 -1.162932 0.570081 -0.000001 -0.000001 8.374491 -0.123071 -1.162931 0.570084 -0.000000 -0.000000 8.374484 -0.091215 -0.872314 0.427312 0.000000 0.000003 12.152549 4.790941 -18.778167 -10.452688 0.000000 0.040102 7.802311 5.421282 1.306783 -17.614689 2.894404 0.000001 6.791376 3.787929 -0.414536 -12.165713 13.574685 0.000001 0.000001 48.355960 12.703361 34.191456 23.923901 0.000011 -0.000004 83.783881 -47.474336 43.808567 19.846718 0.012762 0.000003 4.944860 9.105337 -46.880410 -2.894404 -0.000000 6.791366 -6.083011 -0.090475 -7.638067 -13.574685 -0.000001 -0.000003 -49.667192 -4.578555 -42.917173 -23.923910 -0.000012 0.000009 -24.840015 -9.951751 -44.721992 -19.846718 0.012758 -0.000001 12.073421 10.761582 -4.680413 9.469264 0.004642 0.045485 1.338626 -15.242013 -11.986004 0.000073 0.002664 -40.478592 -3.132485 1.585871 -1.659179 0.000052 0.049106 -35.223953 4.393905 2.545260 -0.937607 0.000000 12.539525 -6.151390 0.025239 0.017867 -0.001182 -9.469262 0.004644 0.045493 0.988171 -15.503027 -22.845632 -0.000910 0.002499 -40.478504 -1.588066 4.353747 19.826458 -0.000932 0.048941 -35.223991 1.168863 1.408896 20.463527 -0.000001 12.539532 -6.151387 -0.000929 -0.009140 0.005764 
6.794863 3.959135 83.068306 -11.306787 -3.236163 -102.875688 0.000000 -0.009281 11.569101 -0.293496 -2.622202 1.330989 0.000000 0.016865 9.269643 -0.121759 -1.164863 0.572853 -0.000000 -0.000002 8.374491 -0.121760 -1.164864 0.572852 -0.000000 -0.000001 8.374492 -0.090225 -0.873762 0.429393 0.000001 -0.000001 12.152556 4.819935 -18.772611 -10.479913 0.000000 0.040099 7.802310 5.465062 1.318754 -17.655318 2.894405 -0.000000 6.791376 3.804090 -0.431402 -12.110104 13.574684 0.000001 -0.000003 48.788594 13.255042 34.808959 23.923899 0.000007 -0.000006 84.195086 -47.020542 45.048984 19.846710 0.012765 -0.000001 6.304687 9.574073 -47.604462 -2.894404 -0.000001 6.791382 -6.089512 -0.136838 -7.630983 -13.574681 -0.000004 0.000001 -49.314881 -4.588348 -42.709583 -23.923891 -0.000001 0.000005 -24.860179 -10.741863 -44.809169 -19.846718 0.012762 -0.000003 11.699121 9.314279 -2.770331 9.469263 0.004646 0.045490 1.344531 -15.258223 -11.984824 0.000074 0.002664 -40.478607 -3.128557 1.579809 -1.657706 0.000052 0.049107 -35.223965 4.385364 2.547658 -0.947387 0.000000 12.539524 -6.151389 0.023024 0.021449 -0.004726 -9.469265 0.004644 0.045491 0.981234 -15.503322 -22.827645 -0.000911 0.002501 -40.478512 -1.587929 4.349301 19.808267 -0.000940 0.048939 -35.223984 1.177127 1.418798 20.621082 -0.000003 12.539534 -6.151395 0.007764 -0.026519 0.022202 
6.790249 3.965748 83.068741 -11.314037 -3.225099 -102.836578 0.000001 -0.009285 11.569107 -0.297350 -2.632004 1.345233 -0.000000 0.016862 9.269629 -0.121954 -1.170013 0.579884 0.000000 -0.000001 8.374500 -0.121954 -1.170013 0.579886 -0.000000 0.000001 8.374491 -0.090353 -0.877626 0.434666 -0.000000 0.000001 12.152558 4.854225 -18.755382 -10.510401 -0.000001 0.040103 7.802328 5.516276 1.352682 -17.700522 2.894404 0.000000 6.791378 3.834958 -0.431379 -12.044634 13.574683 0.000002 0.000004 49.353659 13.844400 35.446305 23.923908 0.000006 0.000008 84.479721 -46.473174 46.273087 19.846720 0.012775 0.000000 7.337034 10.010823 -48.121422 -2.894405 -0.000000 6.791380 -6.112711 -0.143508 -7.630852 -13.574685 -0.000003 0.000004 -49.021340 -4.535364 -42.501542 -23.923910 0.000004 0.000001 -24.976265 -11.596927 -44.909549 -19.846718 0.012764 0.000004 11.324916 7.858637 -0.790854 9.469264 0.004641 0.045486 1.336644 -15.260227 -12.001003 0.000073 0.002664 -40.478607 -3.125893 1.573770 -1.661690 0.000054 0.049107 -35.223946 4.383643 2.552041 -0.964469 -0.000001 12.539528 -6.151385 0.020383 0.017563 -0.004935 -9.469263 0.004640 0.045480 0.979229 -15.506302 -22.834246 -0.000909 0.002501 -40.478516 -1.580421 4.347789 19.790475 -0.000939 0.048940 -35.223995 1.169632 1.415744 20.611675 -0.000001 12.539533 -6.151392 0.006199 -0.027683 0.015443 
6.785912 3.962007 83.069344 -11.319015 -3.224841 -102.810582 -0.000000 -0.009284 11.569106 -0.294897 -2.647358 1.384906 0.000000 0.016864 9.269638 -0.123003 -1.175959 0.593386 -0.000001 -0.000005 8.374484 -0.123003 -1.175958 0.593385 0.000000 0.000001 8.374506 -0.091107 -0.882090 0.444787 0.000001 0.000001 12.152561 4.894982 -18.724728 -10.551951 -0.000000 0.040096 7.802305 5.574429 1.411577 -17.764257 2.894404 -0.000001 6.791377 3.885673 -0.397338 -11.979231 13.574683 0.000002 0.000007 50.007787 14.376974 36.074303 23.923908 0.000005 -0.000001 84.312750 -45.909789 47.748364 19.846714 0.012768 0.000003 8.223074 10.517819 -48.374992 -2.894404 -0.000001 6.791382 -6.137678 -0.133392 -7.656465 -13.574686 -0.000003 -0.000006 -48.810437 -4.420861 -42.264411 -23.923912 0.000004 -0.000004 -25.235568 -12.441804 -45.119267 -19.846718 0.012765 0.000003 10.797628 6.358838 1.577293 9.469261 0.004641 0.045488 1.342129 -15.261318 -11.988277 0.000076 0.002663 -40.478596 -3.122999 1.566674 -1.684240 0.000053 0.049106 -35.223938 4.378340 2.552531 -0.975152 -0.000001 12.539524 -6.151390 0.015842 0.017853 -0.006974 -9.469262 0.004640 0.045485 0.970085 -15.498200 -22.825010 -0.000907 0.002503 -40.478508 -1.570957 4.343905 19.762616 -0.000943 0.048938 -35.224003 1.170427 1.411135 20.712024 -0.000001 12.539534 -6.151400 0.010968 -0.033636 0.023787 
6.772478 3.973254 83.069916 -11.318543 -3.210848 -102.766213 0.000000 -0.009285 11.569105 -0.297319 -2.653208 1.398838 -0.000000 0.016867 9.269633 -0.120861 -1.180892 0.602313 0.000000 -0.000002 8.374493 -0.120862 -1.180893 0.602316 -0.000001 0.000000 8.374486 -0.089479 -0.885789 0.451486 -0.000000 0.000001 12.152557 4.925235 -18.683653 -10.589255 0.000001 0.040103 7.802320 5.613650 1.488837 -17.823911 2.894404 0.000001 6.791376 3.925472 -0.371655 -11.894046 13.574682 0.000001 0.000008 50.733979 14.785826 36.705457 23.923908 -0.000002 0.000010 83.749669 -45.234775 49.450559 19.846716 0.012754 0.000001 9.190061 11.057719 -48.356616 -2.894404 0.000000 6.791372 -6.178224 -0.138246 -7.663036 -13.574680 -0.000002 0.000004 -48.682245 -4.237731 -42.001811 -23.923908 -0.000004 -0.000002 -25.672996 -13.287072 -45.439565 -19.846718 0.012775 0.000005 10.110440 4.900696 4.376476 9.469263 0.004642 0.045488 1.334904 -15.247976 -11.992571 0.000076 0.002664 -40.478603 -3.121891 1.558648 -1.708564 0.000054 0.049105 -35.223953 4.376962 2.552422 -0.983749 -0.000000 12.539529 -6.151398 0.013971 0.013000 -0.003185 -9.469263 0.004640 0.045487 0.976689 -15.490096 -22.844737 -0.000908 0.002501 -40.478504 -1.566776 4.341652 19.740432 -0.000937 0.048942 -35.223999 1.158506 1.401102 20.538089 -0.000003 12.539534 -6.151395 0.005417 -0.031205 0.008980 
6.760015 3.973064 83.071266 -11.324095 -3.211632 -102.734262 -0.000000 -0.009284 11.569103 -0.289087 -2.670912 1.425206 -0.000000 0.016868 9.269644 -0.118868 -1.187844 0.611696 0.000000 -0.000002 8.374482 -0.118869 -1.187842 0.611697 0.000001 -0.000000 8.374500 -0.087959 -0.891001 0.458525 0.000000 -0.000000 12.152561 4.947488 -18.621585 -10.623555 -0.000000 0.040105 7.802312 5.637026 1.604189 -17.881242 2.894404 -0.000002 6.791372 3.975997 -0.342429 -11.807509 13.574682 0.000002 -0.000011 51.535533 15.056807 37.347768 23.923908 0.000005 -0.000000 83.002378 -44.282111 51.166907 19.846718 0.012756 0.000001 10.430793 11.661050 -48.025410 -2.894405 -0.000002 6.791373 -6.213949 -0.136100 -7.664580 -13.574681 -0.000003 0.000006 -48.586069 -4.022196 -41.728491 -23.923914 0.000002 -0.000003 -26.224605 -14.132131 -45.842871 -19.846718 0.012773 0.000016 9.318711 3.720372 7.259746 9.469263 0.004642 0.045489 1.342680 -15.244210 -11.991864 0.000076 0.002664 -40.478603 -3.120492 1.551359 -1.727507 0.000055 0.049104 -35.223946 4.374194 2.548416 -0.996250 -0.000000 12.539527 -6.151394 0.009514 0.013383 -0.003941 -9.469263 0.004640 0.045486 0.977431 -15.475940 -22.856866 -0.000905 0.002503 -40.478508 -1.562455 4.333018 19.732019 -0.000932 0.048940 -35.223984 1.152033 1.390386 20.437657 -0.000001 12.539535 -6.151396 0.009628 -0.033023 0.015627 
